HIERARCHY
ROOT hip
{
  OFFSET 0 0 0
  CHANNELS 6 Xposition Yposition Zposition Zrotation Yrotation Xrotation
  JOINT abdomen
  {
    OFFSET 0 20.6881 -0.73152
    CHANNELS 3 Zrotation Xrotation Yrotation
    JOINT chest
    {
      OFFSET 0 11.7043 -0.48768
      CHANNELS 3 Zrotation Xrotation Yrotation
      JOINT neck
      {
        OFFSET 0 22.1894 -2.19456
        CHANNELS 3 Zrotation Xrotation Yrotation
        JOINT head
        {
          OFFSET -0.24384 7.07133 1.2192
          CHANNELS 3 Zrotation Xrotation Yrotation
          JOINT leftEye
          {
            OFFSET 4.14528 8.04674 8.04672
            CHANNELS 3 Zrotation Xrotation Yrotation
            End Site
            {
              OFFSET 1 0 0
            }
          }
          JOINT rightEye
          {
            OFFSET -3.6576 8.04674 8.04672
            CHANNELS 3 Zrotation Xrotation Yrotation
            End Site
            {
              OFFSET 1 0 0
            }
          }
        }
      }
      JOINT rCollar
      {
        OFFSET -2.68224 19.2634 -4.8768
        CHANNELS 3 Zrotation Xrotation Yrotation
        JOINT rShldr
        {
          OFFSET -8.77824 -1.95073 1.46304
          CHANNELS 3 Zrotation Xrotation Yrotation
          JOINT rForeArm
          {
            OFFSET -28.1742 -1.7115 0.48768
            CHANNELS 3 Zrotation Xrotation Yrotation
            JOINT rHand
            {
              OFFSET -22.5879 0.773209 7.07136
              CHANNELS 3 Zrotation Xrotation Yrotation
              JOINT rThumb1
              {
                OFFSET -1.2192 -0.487915 3.41376
                CHANNELS 3 Zrotation Xrotation Yrotation
                JOINT rThumb2
                {
                  OFFSET -3.37035 -0.52449 3.41376
                  CHANNELS 3 Zrotation Xrotation Yrotation
                  End Site
                  {
                    OFFSET -1.78271 -1.18214 1.43049
                  }
                }
              }
              JOINT rIndex1
              {
                OFFSET -7.75947 0.938293 5.60832
                CHANNELS 3 Zrotation Xrotation Yrotation
                JOINT rIndex2
                {
                  OFFSET -2.54057 -0.884171 1.56538
                  CHANNELS 3 Zrotation Xrotation Yrotation
                  End Site
                  {
                    OFFSET -1.62519 -0.234802 1.16502
                  }
                }
              }
              JOINT rMid1
              {
                OFFSET -8.24714 1.18213 3.41376
                CHANNELS 3 Zrotation Xrotation Yrotation
                JOINT rMid2
                {
                  OFFSET -3.10165 -0.590103 1.0647
                  CHANNELS 3 Zrotation Xrotation Yrotation
                  End Site
                  {
                    OFFSET -2.48547 -0.328903 0.83742
                  }
                }
              }
              JOINT rRing1
              {
                OFFSET -8.82822 0.546677 1.51678
                CHANNELS 3 Zrotation Xrotation Yrotation
                JOINT rRing2
                {
                  OFFSET -2.60934 -0.819778 -0.0198488
                  CHANNELS 3 Zrotation Xrotation Yrotation
                  End Site
                  {
                    OFFSET -2.33842 -0.294052 0.168128
                  }
                }
              }
              JOINT rPinky1
              {
                OFFSET -8.27202 -0.0477905 -0.4584
                CHANNELS 3 Zrotation Xrotation Yrotation
                JOINT rPinky2
                {
                  OFFSET -1.82734 -0.647385 -0.700984
                  CHANNELS 3 Zrotation Xrotation Yrotation
                  End Site
                  {
                    OFFSET -1.69225 -0.51767 -0.607171
                  }
                }
              }
            }
          }
        }
      }
      JOINT lCollar
      {
        OFFSET 2.68224 19.2634 -4.8768
        CHANNELS 3 Zrotation Xrotation Yrotation
        JOINT lShldr
        {
          OFFSET 8.77824 -1.95073 1.46304
          CHANNELS 3 Zrotation Xrotation Yrotation
          JOINT lForeArm
          {
            OFFSET 28.1742 -1.7115 0.48768
            CHANNELS 3 Zrotation Xrotation Yrotation
            JOINT lHand
            {
              OFFSET 22.5879 0.773209 7.07136
              CHANNELS 3 Zrotation Xrotation Yrotation
              JOINT lThumb1
              {
                OFFSET 1.2192 -0.487915 3.41376
                CHANNELS 3 Zrotation Xrotation Yrotation
                JOINT lThumb2
                {
                  OFFSET 3.37035 -0.52449 3.41376
                  CHANNELS 3 Zrotation Xrotation Yrotation
                  End Site
                  {
                    OFFSET 1.78271 -1.18214 1.43049
                  }
                }
              }
              JOINT lIndex1
              {
                OFFSET 7.75947 0.938293 5.60832
                CHANNELS 3 Zrotation Xrotation Yrotation
                JOINT lIndex2
                {
                  OFFSET 2.54057 -0.884171 1.56538
                  CHANNELS 3 Zrotation Xrotation Yrotation
                  End Site
                  {
                    OFFSET 1.62519 -0.234802 1.16502
                  }
                }
              }
              JOINT lMid1
              {
                OFFSET 8.24714 1.18213 3.41376
                CHANNELS 3 Zrotation Xrotation Yrotation
                JOINT lMid2
                {
                  OFFSET 3.10165 -0.590103 1.0647
                  CHANNELS 3 Zrotation Xrotation Yrotation
                  End Site
                  {
                    OFFSET 2.48547 -0.328903 0.83742
                  }
                }
              }
              JOINT lRing1
              {
                OFFSET 8.82822 0.546677 1.51678
                CHANNELS 3 Zrotation Xrotation Yrotation
                JOINT lRing2
                {
                  OFFSET 2.60934 -0.819778 -0.0198488
                  CHANNELS 3 Zrotation Xrotation Yrotation
                  End Site
                  {
                    OFFSET 2.33842 -0.294052 0.168128
                  }
                }
              }
              JOINT lPinky1
              {
                OFFSET 8.27202 -0.0477905 -0.4584
                CHANNELS 3 Zrotation Xrotation Yrotation
                JOINT lPinky2
                {
                  OFFSET 1.82734 -0.647385 -0.700984
                  CHANNELS 3 Zrotation Xrotation Yrotation
                  End Site
                  {
                    OFFSET 1.69225 -0.51767 -0.607171
                  }
                }
              }
            }
          }
        }
      }
    }
  }
  JOINT rButtock
  {
    OFFSET -8.77824 4.35084 1.2192
    CHANNELS 3 Zrotation Xrotation Yrotation
    JOINT rThigh
    {
      OFFSET 0 -1.70687 -2.19456
      CHANNELS 3 Zrotation Xrotation Yrotation
      JOINT rShin
      {
        OFFSET 0 -36.8199 0.73152
        CHANNELS 3 Zrotation Xrotation Yrotation
        JOINT rFoot
        {
          OFFSET 0.73152 -45.1104 -5.12064
          CHANNELS 3 Zrotation Xrotation Yrotation
          End Site
          {
            OFFSET -1.1221 -3.69964 12.103
          }
        }
      }
    }
  }
  JOINT lButtock
  {
    OFFSET 8.77824 4.35084 1.2192
    CHANNELS 3 Zrotation Xrotation Yrotation
    JOINT lThigh
    {
      OFFSET 0 -1.70687 -2.19456
      CHANNELS 3 Zrotation Xrotation Yrotation
      JOINT lShin
      {
        OFFSET 0 -36.8199 0.73152
        CHANNELS 3 Zrotation Xrotation Yrotation
        JOINT lFoot
        {
          OFFSET -0.73152 -45.1104 -5.12064
          CHANNELS 3 Zrotation Xrotation Yrotation
          End Site
          {
            OFFSET 1.1221 -3.69964 12.103
          }
        }
      }
    }
  }
}
MOTION
Frames:	4
Frame Time:	0.00833333
253.469 84.7658 30.5584 0.0 0.0 0.0 -0.385196 -0.00168814 -0.0109958 -0.106234 -0.00256713 -0.0184049 1.25855e-14 0.0 1.30452e-16 3.76324e-14 3.18055e-15 3.78933e-16 -0.0 0.0 0.0 -0.0 0.0 0.0 6.31031e-15 2.52363e-18 1.98785e-16 1.32801e-13 -1.11816e-16 2.78299e-15 2.2737e-12 -6.76663e-13 -1.59028e-14 2.59592e-11 6.95548e-13 3.27597e-13 6.12452e-11 4.46778e-14 6.67916e-13 1.05751e-10 7.63333e-14 1.15216e-12 6.12475e-11 4.41302e-14 6.55194e-13 7.73091 5.47488 0.417314 6.12452e-11 4.4329e-14 6.71097e-13 2.90554 0.965183 0.102902 6.12477e-11 4.44284e-14 6.71892e-13 10.2786 0.731801 0.0259123 6.12408e-11 4.6118e-14 6.87e-13 2.22167 -0.733487 -0.20892 6.21354e-15 2.13538e-18 -9.93923e-17 1.29274e-13 -1.98785e-16 9.93923e-16 2.26451e-12 6.83024e-13 1.59028e-14 2.59633e-11 -6.61183e-13 3.02153e-13 6.12387e-11 5.16285e-14 6.77458e-13 1.0577e-10 8.90555e-14 1.16885e-12 6.1232e-11 5.04913e-14 6.87e-13 -7.73091 5.47488 -0.417314 6.12386e-11 5.11871e-14 6.74278e-13 -2.90554 0.965183 -0.102902 6.12363e-11 5.11871e-14 6.71892e-13 -10.2786 0.731801 -0.0259123 6.12426e-11 5.24792e-14 6.58375e-13 -2.22167 -0.733487 0.20892 -2.03217e-16 0.0 -3.88251e-19 0.221643 -2.58356 -0.0280808 -0.00748953 -0.87263 -0.0651396 -0.513104 3.45577 0.129346 2.03217e-16 0.0 3.88251e-19 -0.807782 -4.07084 0.0653915 0.0032558 1.82139 0.0244324 0.517718 2.24911 -0.105181
249.348 83.6355 23.6988 -140.815 -84.2263 147.644 1.0389 -2.0714 -0.366466 0.30225 -0.00604189 -0.169917 -3.62453 1.25142 -2.4744 1.99947 -4.21127 -3.93859 -0.0 0.0 0.0 -0.0 0.0 0.0 6.93052e-14 -8.46929e-13 -2.40755e-15 21.926 4.96604 2.08323 -3.49042 -1.46412 5.57697 0.0135605 2.5948 0.363344 -1.59921e-10 2.67399e-10 -8.68782e-10 -2.8302e-10 4.60364e-10 -1.49985e-09 -1.5992e-10 2.67399e-10 -8.68793e-10 7.73091 5.47488 0.417314 -1.59922e-10 2.67399e-10 -8.68779e-10 2.90554 0.965183 0.102902 -1.59919e-10 2.674e-10 -8.68778e-10 10.2786 0.731801 0.0259123 -1.59926e-10 2.67401e-10 -8.68763e-10 2.22167 -0.733487 -0.20892 6.91886e-14 -8.46928e-13 -2.67738e-15 -23.3107 3.72293 -2.16655 2.71528 -1.03557 -4.43194 -0.115414 7.5593 -1.02946 -6.95086e-10 1.54537e-10 -1.32642e-10 -1.2033e-09 2.69781e-10 -2.12354e-10 -6.95098e-10 1.54534e-10 -1.3263e-10 -7.73091 5.47488 -0.417314 -6.95087e-10 1.54534e-10 -1.32644e-10 -2.90554 0.965183 -0.102902 -6.95088e-10 1.54535e-10 -1.32645e-10 -10.2786 0.731801 -0.0259123 -6.95083e-10 1.54537e-10 -1.32656e-10 -2.22167 -0.733487 0.20892 -2.03217e-16 0.0 -3.88251e-19 1.47361 -4.4519 0.778759 -0.00440408 2.73974 0.00713928 -0.734478 0.928152 -3.94221 2.03217e-16 0.0 3.88251e-19 1.07801 -5.93805 -2.30168 0.000858403 4.97224 -0.0265038 0.49844 0.0660491 0.0506881
249.383 83.635 23.7179 -140.313 -84.3593 147.116 2.5158 -4.2638 -0.741964 0.735139 -0.00989082 -0.329669 -7.34254 2.5661 -5.09111 3.4878 -8.59079 -8.16509 -0.0 0.0 0.0 -0.0 0.0 0.0 1.37565e-13 -1.76839e-12 -4.48197e-15 44.7018 10.1597 4.31865 -6.86325 -2.96008 11.4705 -0.00819194 5.36542 0.753866 -3.92e-10 5.56706e-10 -1.8003e-09 -6.91138e-10 9.58473e-10 -3.10802e-09 -3.91999e-10 5.56706e-10 -1.80031e-09 7.73091 5.47488 0.417314 -3.92001e-10 5.56707e-10 -1.8003e-09 2.90554 0.965183 0.102902 -3.91996e-10 5.56707e-10 -1.8003e-09 10.2786 0.731801 0.0259123 -3.92005e-10 5.56709e-10 -1.80028e-09 2.22167 -0.733487 -0.20892 1.37426e-13 -1.76838e-12 -4.72114e-15 -47.6465 7.59206 -4.46301 5.40923 -2.10811 -9.1171 0.068769 15.5907 -2.18592 -1.50538e-09 3.20841e-10 -2.72404e-10 -2.6057e-09 5.60106e-10 -4.35719e-10 -1.5054e-09 3.20835e-10 -2.72388e-10 -7.73091 5.47488 -0.417314 -1.50538e-09 3.20836e-10 -2.72405e-10 -2.90554 0.965183 -0.102902 -1.50538e-09 3.20838e-10 -2.72404e-10 -10.2786 0.731801 -0.0259123 -1.50538e-09 3.20841e-10 -2.72411e-10 -2.22167 -0.733487 0.20892 -2.03217e-16 0.0 -3.88251e-19 2.85271 -6.42229 1.63756 -0.0110891 6.55563 0.0839983 -1.35679 -1.71926 -8.24232 2.03217e-16 0.0 3.88251e-19 2.9009 -7.8887 -4.82202 0.00448234 8.2989 -0.080917 0.491577 -2.23628 0.220227
249.448 83.6313 23.7304 -139.559 -84.4644 146.381 3.80968 -6.20986 -1.08304 1.11916 -0.0129911 -0.472942 -10.5497 3.72624 -7.43725 4.24018 -12.3924 -12.0691 -0.0 0.0 0.0 -0.0 0.0 0.0 1.95295e-13 -2.54079e-12 -7.62021e-15 64.6652 14.818 6.4413 -9.62774 -4.22618 16.7724 -0.058824 7.78314 1.09904 -6.02255e-10 8.02107e-10 -2.60768e-09 -1.06056e-09 1.38094e-09 -4.50185e-09 -6.02256e-10 8.02108e-10 -2.60769e-09 7.73091 5.47488 0.417314 -6.02257e-10 8.02109e-10 -2.60768e-09 2.90554 0.965183 0.102902 -6.02251e-10 8.0211e-10 -2.60768e-09 10.2786 0.731801 0.0259123 -6.02261e-10 8.02112e-10 -2.60766e-09 2.22167 -0.733487 -0.20892 1.95139e-13 -2.54079e-12 -7.83336e-15 -69.0758 11.1043 -6.61022 7.66944 -3.03245 -13.3126 0.526119 22.6473 -3.31761 -2.20774e-09 4.63508e-10 -3.99281e-10 -3.82145e-09 8.09165e-10 -6.394e-10 -2.20776e-09 4.635e-10 -3.99263e-10 -7.73091 5.47488 -0.417314 -2.20774e-09 4.63501e-10 -3.99282e-10 -2.90554 0.965183 -0.102902 -2.20774e-09 4.63504e-10 -3.9928e-10 -10.2786 0.731801 -0.0259123 -2.20774e-09 4.63507e-10 -3.99284e-10 -2.22167 -0.733487 0.20892 -2.03217e-16 0.0 -3.88251e-19 4.13684 -8.18266 2.40988 -0.0258379 9.96444 0.15398 -2.24868 -4.02905 -12.1137 2.03217e-16 0.0 3.88251e-19 4.38214 -9.61387 -7.09862 0.0131458 11.2739 -0.130572 0.495555 -4.29999 0.363287
